# xmcd CD database file
#
# Track frame offsets:
#	150
#	36455
#	66051
#	92136
#	126214
#	183020
#	206647
#	234227
#	256703
#	284213
#
# Disc length: 4002 seconds
#
# Revision: 0
# Processed by: cddbd v1.5.2PL0 Copyright (c) Steve Scherf et al.
# Submitted via: CDex 1.51
#
DISCID=8e0fa00a
DTITLE=Wolfgang Puschnig - Alpine Aspects
DYEAR=2008
DGENRE=Jazz
TTITLE0=Peace Warriors
TTITLE1=Another Alpine Waltz
TTITLE2=Latin Genetics
TTITLE3=Going
TTITLE4=Theme From A Symphony
TTITLE5=Lonely Gladiators
TTITLE6=Monsoon Brass
TTITLE7=3 For C.
TTITLE8=In All Languages
TTITLE9=Theme from A Symphony
EXTD=YEAR: 2008
EXTT0=
EXTT1=
EXTT2=
EXTT3=
EXTT4=
EXTT5=
EXTT6=
EXTT7=
EXTT8=
EXTT9=
PLAYORDER=
